PathFileType	4	(X/Y/Z)	C:\Users\Basilio\Documents\Thesis Gigler\squatting_fais\c3dfiles\047\SLS_pre_front1\markers_experimental.trc
DataRate	CameraRate	NumFrames	NumMarkers	Units	OrigDataRate	OrigDataStartFrame	OrigNumFrames
200.000000	200.000000	4	60	mm	200.000000	755	1209
Frame#	Time	FHD			LBHD			RBHD			C7			T10			CLAV			LSHO			LUUPA			LMUPA			LDUPA			LLEP			LRAD			LUL			LRFIN			RSHO			RUPA1			RMUPA			RDUPA			RLEP			RMEP			RRAD			RUL			RUFIN			LASI			RASI			USACR			LSACR			RSACR			LTHI1			LTHI2			LTHI3			LTHI4			LLFC			LMFC			LTIB1			LTIB2			LTIB3			LTIB4			LLMAL			LMMAL			LMT1			LMT2			LMT5			RTHI			RTHI2			RTHI3			RTHI4			RLFC			RMFC			RTIB1			RTIB2			RTIB3			RTIB4			RLMAL			RMMAL			RHEE			RMT1			RMT2			RMT5			LMEP			
		X1	Y1	Z1	X2	Y2	Z2	X3	Y3	Z3	X4	Y4	Z4	X5	Y5	Z5	X6	Y6	Z6	X7	Y7	Z7	X8	Y8	Z8	X9	Y9	Z9	X10	Y10	Z10	X11	Y11	Z11	X12	Y12	Z12	X13	Y13	Z13	X14	Y14	Z14	X15	Y15	Z15	X16	Y16	Z16	X17	Y17	Z17	X18	Y18	Z18	X19	Y19	Z19	X20	Y20	Z20	X21	Y21	Z21	X22	Y22	Z22	X23	Y23	Z23	X24	Y24	Z24	X25	Y25	Z25	X26	Y26	Z26	X27	Y27	Z27	X28	Y28	Z28	X29	Y29	Z29	X30	Y30	Z30	X31	Y31	Z31	X32	Y32	Z32	X33	Y33	Z33	X34	Y34	Z34	X35	Y35	Z35	X36	Y36	Z36	X37	Y37	Z37	X38	Y38	Z38	X39	Y39	Z39	X40	Y40	Z40	X41	Y41	Z41	X42	Y42	Z42	X43	Y43	Z43	X44	Y44	Z44	X45	Y45	Z45	X46	Y46	Z46	X47	Y47	Z47	X48	Y48	Z48	X49	Y49	Z49	X50	Y50	Z50	X51	Y51	Z51	X52	Y52	Z52	X53	Y53	Z53	X54	Y54	Z54	X55	Y55	Z55	X56	Y56	Z56	X57	Y57	Z57	X58	Y58	Z58	X59	Y59	Z59	X60	Y60	Z60	

756	3.775	-75.25806427001955	1455.472900390625	-1093.290405273438	-253.5584564208985	1425.6015625	-1121.592651367188	-232.4644927978516	1427.579223632813	-973.966979980469	-297.3383178710938	1271.895751953125	-1046.785522460938	-428.1606750488282	1001.984191894531	-1002.995056152344	-168.5406951904297	1176.39404296875	-1068.816772460938	-235.6386718750001	1239.90576171875	-1202.4248046875	-153.2978668212891	1166.1259765625	-1328.537109375	-121.051498413086	1204.51318359375	-1320.700317382813	-86.96536254882814	1167.850952148438	-1350.323120117188	-22.69379043579102	1183.350952148438	-1364.827758789063	248.0404815673829	1176.265258789063	-1338.261108398438	234.7947845458985	1193.451904296875	-1412.925048828125	325.9749145507813	1207.517822265625	-1363.421630859375	-194.2826690673829	1255.173217773438	-932.7299804687502	-63.38219833374025	1190.36572265625	-834.356872558594	-36.80484008789063	1220.549682617188	-862.3823242187502	5.794084548950196	1183.155517578125	-841.9403076171877	73.1046829223633	1191.674926757813	-861.1301269531252	71.56093597412111	1122.678588867188	-905.022399902344	320.7545776367188	1173.575805664063	-975.876892089844	328.4236145019532	1192.066650390625	-902.4175415039065	400.8067321777345	1194.551635742188	-978.125183105469	-325.1481018066407	751.9794311523439	-1080.67041015625	-311.9081726074219	786.4440917968752	-855.6888427734377	-490.8722534179689	858.273864746094	-975.379089355469	-505.6024475097657	827.321716308594	-999.7114868164065	-499.4337158203126	830.206726074219	-943.4570312500002	-336.9345092773438	623.5003051757814	-1155.93212890625	-254.9465484619141	603.2621459960939	-1162.1376953125	-225.6822509765626	640.7986450195314	-1150.602905273438	-230.9747619628907	548.1005859375001	-1165.14453125	-119.4638671875	428.5706787109376	-1142.28515625	-75.49550628662111	445.6355590820314	-1018.847778320313	-155.1798858642578	280.6243286132813	-1021.375061035156	-183.3027496337891	232.1890563964844	-1088.308349609375	-172.2817687988282	229.8826904296876	-1042.08935546875	-229.3537139892579	180.6407623291016	-1007.427368164063	-322.9378662109376	115.0099792480469	-1051.901977539063	-298.8765563964844	137.1766052246094	-963.4509277343752	-189.9952850341797	61.3926467895508	-977.1026000976565	-188.2750244140625	59.38800048828126	-1021.793029785156	-236.2614135742188	45.72364807128907	-1067.492309570313	-297.7622985839844	642.4151611328126	-755.0963745117189	-230.5234680175782	644.2823486328126	-759.3562011718751	-214.9692840576172	671.1399536132814	-770.9012451171877	-179.5942077636719	578.2723388671876	-765.3944091796876	-53.88126754760744	507.1662902832032	-792.170349121094	-41.04240798950196	514.6945800781251	-915.1883544921877	59.23791503906251	440.3504333496095	-816.7063598632815	73.24722290039064	340.3116760253907	-773.910827636719	103.2490539550782	368.2746276855469	-795.5312500000002	138.8609924316407	337.5476989746094	-830.881530761719	193.576156616211	186.0755462646485	-797.5200195312502	196.4365539550782	207.557113647461	-887.749450683594	162.4329986572266	122.9860458374024	-844.3681640625002	343.3144226074219	219.1825866699219	-884.1008911132815	348.5273132324219	231.3108062744141	-842.1956787109377	328.0863952636719	189.0280151367188	-781.0411376953127	-1.658542156219483	1118.97314453125	-1303.877197265625	
757	3.78	-76.11966705322267	1457.567138671875	-1093.36962890625	-254.2777404785157	1427.552368164063	-1121.439697265625	-232.8842315673829	1429.31396484375	-974.080017089844	-297.7546386718751	1273.576171875	-1046.76904296875	-428.0182189941407	1003.465270996094	-1003.079650878906	-169.1258850097657	1178.438232421875	-1068.788208007813	-236.2190704345704	1241.745971679688	-1202.464477539063	-153.7479248046875	1167.87646484375	-1328.819702148438	-121.9566268920899	1206.446166992188	-1320.5517578125	-87.46333312988283	1169.832763671875	-1350.421142578125	-23.05400085449219	1184.945068359375	-1365.31005859375	247.8804931640626	1178.517333984375	-1338.542236328125	234.2406463623047	1195.667846679688	-1413.063842773438	325.6107177734376	1209.463989257813	-1363.456909179688	-194.599838256836	1256.967163085938	-932.9422607421877	-63.75804901123048	1191.92431640625	-834.4672851562502	-37.39406204223634	1222.387573242188	-862.1741333007815	5.400968074798585	1184.842163085938	-842.624206542969	72.71939849853517	1193.865844726563	-861.0623779296877	71.1902313232422	1124.75146484375	-904.7042236328127	320.4959716796876	1176.11376953125	-976.0268554687502	328.0820007324219	1194.57763671875	-902.447448730469	400.4916381835939	1196.925537109375	-978.245788574219	-324.8217163085938	753.2144775390626	-1080.8544921875	-311.4788513183594	787.8621826171877	-855.692077636719	-490.6490783691407	859.920593261719	-975.5670166015627	-505.3208923339845	828.7561035156252	-999.822204589844	-499.2901611328126	831.6544189453127	-943.615661621094	-336.7453002929688	624.8167724609376	-1156.001098632813	-254.756332397461	604.1395263671876	-1162.000610351563	-225.1125640869141	641.2451171875001	-1150.563842773438	-231.0130310058594	549.0099487304689	-1164.9287109375	-119.8004608154297	429.0281372070314	-1141.927978515625	-76.26689910888673	445.881805419922	-1018.409240722656	-155.3863220214844	280.9395751953126	-1021.226013183594	-183.2726745605469	232.4681701660157	-1088.115844726563	-172.4613189697266	230.0604248046876	-1041.944091796875	-229.5004272460938	180.7609405517578	-1007.233459472656	-322.8946228027344	115.0096054077149	-1051.866943359375	-298.9375000000001	137.4144439697266	-963.4923095703127	-189.9802398681641	61.34308242797853	-977.0023193359377	-188.2829742431641	59.4108009338379	-1021.658752441406	-236.5859985351563	46.12177276611329	-1067.426635742188	-297.6676025390626	643.8197021484376	-755.0911254882814	-230.3667144775391	645.9011840820314	-759.7726440429689	-214.7165832519532	672.6835327148439	-770.8211059570315	-179.26171875	579.7861328125001	-765.6533203125001	-53.77014541625978	508.3830871582032	-792.1922607421877	-41.04776763916016	515.7586669921876	-915.0703735351565	59.46912002563478	441.2208251953126	-816.9537353515627	73.00788879394533	341.0151977539063	-774.430847167969	102.9320373535157	369.0419616699219	-795.2634277343752	138.4629364013672	338.5312500000001	-830.6148071289065	192.9362030029297	187.5269317626953	-797.1920166015627	196.6941070556641	208.9753723144532	-888.0139160156252	161.7996520996094	123.7766189575196	-844.2281494140627	342.9665527343751	219.7771148681641	-884.1611328125002	348.0607604980469	231.7418975830079	-841.8695068359377	327.8299560546876	189.3466033935547	-781.4644775390627	-3.207802534103394	1122.058227539063	-1322.179931640625	
758	3.785	-76.70162200927736	1459.356323242188	-1093.048461914063	-254.8650970458985	1429.471557617188	-1121.263305664063	-233.8562469482422	1431.277099609375	-973.5462646484377	-298.2433471679688	1275.413940429688	-1046.637084960938	-428.3289184570314	1004.9169921875	-1002.981567382813	-169.55224609375	1180.3427734375	-1068.795043945313	-236.6254882812501	1243.584228515625	-1202.421997070313	-154.5493316650391	1169.792602539063	-1328.856567382813	-122.5053329467774	1208.3310546875	-1320.541137695313	-88.1514358520508	1171.81103515625	-1350.341674804688	-23.72083282470703	1187.235473632813	-1364.97802734375	247.1704101562501	1180.754516601563	-1338.657958984375	233.6709136962891	1197.821044921875	-1413.293090820313	324.9020385742188	1211.695922851563	-1363.4658203125	-195.1462860107422	1258.912353515625	-932.7191162109377	-64.31711578369142	1194.138061523438	-835.2385864257815	-37.88314437866212	1224.505737304688	-862.2398071289065	4.986706733703614	1186.79296875	-842.5335693359377	72.35884857177736	1196.017578125	-860.9741210937502	70.74420166015626	1126.870727539063	-904.792419433594	322.0408020019532	1178.455444335938	-977.3880004882815	327.7046508789063	1197.136108398438	-902.5090332031252	400.1855468750001	1199.877807617188	-978.8862304687502	-324.4877929687501	754.7481079101564	-1080.838745117188	-311.1661987304688	789.4361572265627	-855.5372314453127	-490.3556213378907	861.243835449219	-975.8072509765627	-505.0609741210939	830.1047973632815	-1000.069580078125	-498.874237060547	833.0830078125002	-943.7605590820315	-336.4646911621094	625.9191894531251	-1155.926635742188	-254.4996337890626	604.9893188476564	-1161.884887695313	-225.1612854003907	642.1498413085939	-1150.375854492188	-230.9956665039063	549.7842407226564	-1164.820190429688	-120.1944274902344	429.4292297363282	-1141.70751953125	-76.30218505859376	446.1463623046876	-1018.265319824219	-155.5531616210938	281.2792053222657	-1021.025146484375	-183.2798461914063	232.7796325683594	-1088.008666992188	-172.6873474121094	230.2732238769532	-1041.7861328125	-229.7344207763672	180.9208068847657	-1006.967041015625	-322.7772521972657	115.2350616455078	-1051.712158203125	-299.0682678222657	137.3180236816407	-963.277282714844	-190.103988647461	61.29404067993165	-976.9047851562502	-188.2944030761719	59.41024398803712	-1021.673950195313	-236.4856872558594	46.07118225097657	-1067.366333007813	-297.3017578125001	645.3593750000001	-755.2437133789064	-230.2813262939454	647.0867919921876	-759.0256958007814	-214.4958953857422	673.8762207031251	-770.9922485351565	-179.2278747558594	580.9324951171876	-765.2113037109376	-53.74599075317384	509.328826904297	-792.4101562500002	-40.50110244750977	517.4422607421876	-915.4379882812502	59.3284378051758	442.3428649902345	-816.9031982421877	72.91101074218751	341.8943481445313	-774.2949218750002	102.9495925903321	370.2280883789063	-795.4900512695315	137.9475555419922	339.5945434570313	-830.9092407226565	192.8521575927735	188.4746246337891	-797.4993896484377	195.6129302978516	209.2388763427735	-887.8171997070315	161.374267578125	124.7468643188477	-844.1468505859377	342.1972656250001	220.5430450439454	-884.120056152344	347.6951599121094	232.1656799316407	-841.8169555664065	327.5518798828126	190.1211700439453	-781.5027465820315	-3.714688062667848	1123.84716796875	-1322.025512695313	
759	3.79	-77.03447723388673	1461.123168945313	-1093.064819335938	-255.6420288085938	1431.406005859375	-1121.196044921875	-234.2638549804688	1433.29833984375	-973.8579101562502	-298.7921142578126	1277.035766601563	-1046.600341796875	-428.1176757812501	1006.544372558594	-1003.201965332031	-169.7823791503907	1182.222290039063	-1068.90185546875	-237.2457733154297	1245.344848632813	-1202.298583984375	-155.1757049560547	1171.97509765625	-1328.725708007813	-123.2531890869141	1210.372436523438	-1320.489868164063	-88.68768310546876	1173.7646484375	-1350.354858398438	-24.3395004272461	1189.40087890625	-1365.038452148438	246.3835601806641	1182.766357421875	-1338.674194335938	232.8525390625001	1200.00732421875	-1413.4765625	324.8019104003907	1213.691284179688	-1364.082885742188	-195.5288238525391	1260.552612304688	-932.8638305664065	-64.35733795166017	1196.314453125	-833.572448730469	-38.36759948730469	1226.775268554688	-862.3140869140627	4.844245433807374	1189.289428710938	-841.8819580078127	71.9787063598633	1198.0654296875	-861.0896606445315	70.38417053222658	1129.033569335938	-904.2438964843752	321.6636657714844	1180.966186523438	-977.4139404296877	327.1770935058594	1199.6640625	-902.3646240234377	399.4026794433595	1202.518432617188	-978.3391723632815	-324.2565917968751	756.2775268554689	-1080.920532226563	-310.7978515625001	790.9315185546877	-855.7617797851565	-489.9239807128907	862.8682250976565	-976.0106201171877	-504.8155212402345	831.6298828125002	-1000.208984375	-498.6133422851564	834.609069824219	-943.9517822265627	-336.1828918457032	627.0562133789064	-1155.920166015625	-254.2709503173829	605.8223876953126	-1161.789306640625	-224.9744567871094	643.0140380859376	-1150.229248046875	-231.0357818603516	550.4493408203126	-1164.64306640625	-120.7143478393555	429.9652404785157	-1141.3876953125	-76.60500335693361	446.4019165039064	-1018.079223632813	-155.839340209961	281.5560302734376	-1020.671264648438	-183.2549743652344	233.073959350586	-1087.816162109375	-173.1167755126953	230.4331970214844	-1041.355834960938	-230.0630950927735	181.0460662841797	-1006.56787109375	-322.7789001464844	115.1518630981446	-1051.704345703125	-299.1997070312501	137.300048828125	-963.1026611328127	-190.2905578613282	61.16889572143556	-976.748229980469	-188.2808380126953	59.47093582153322	-1021.620788574219	-236.4186553955079	46.10165405273438	-1067.335693359375	-297.3598632812501	646.6203002929689	-754.8714599609376	-230.0739135742188	648.7033691406251	-759.6257324218751	-214.2289123535157	675.3444824218751	-771.0901489257815	-179.0275573730469	582.3531494140626	-765.2242431640626	-53.73856735229494	510.8153076171876	-792.1018676757815	-40.51061248779298	518.4097290039064	-915.1979980468752	59.30373001098634	443.3929443359376	-817.004089355469	72.76709747314455	343.0823669433594	-774.1416625976565	102.8687591552735	371.1270141601563	-795.6191406250002	138.1976318359375	340.4724731445313	-831.2933349609377	192.4476623535157	189.0785217285157	-797.7354125976565	195.3388671875001	210.1316223144532	-887.8521728515627	161.4026947021485	125.2973556518555	-844.6548461914065	342.2873229980469	221.1614685058594	-884.368103027344	347.4276428222657	232.9469299316407	-842.0362548828127	326.9446716308594	190.6441802978516	-781.233337402344	-6.02041006088257	1124.394653320313	-1325.6455078125	
